<svg xmlns="http://www.w3.org/2000/svg" xmlns:xlink="http://www.w3.org/1999/xlink" viewBox="0 0 104 49" fill="#fff" fill-rule="evenodd" stroke="#000" stroke-linecap="round" stroke-linejoin="round"><use xlink:href="#A" x=".5" y=".5"/><symbol id="A" overflow="visible"><path d="M100.392 13.024c5.435 10.665 2.123 23.707-7.742 30.488s-23.227 5.2-31.237-3.696-8.187-22.35-.413-31.452S82.089-2.67 92.129 3.849" stroke="#F2F2F2" fill="none" stroke-width=".554"/><g stroke="none" fill-rule="nonzero"><path d="M60.688 23.854a18.41 18.41 0 0 1 18.45-18.45 18.41 18.41 0 0 1 18.45 18.45 18.41 18.41 0 0 1-18.45 18.45 18.41 18.41 0 0 1-18.45-18.45z" fill="#151965"/><path d="M81.376 16.212a5.39 5.39 0 1 1 10.808 0 5.39 5.39 0 1 1-10.808 0z"/><path d="M92.184 5.405A5.39 5.39 0 0 1 97.588.001a5.39 5.39 0 0 1 5.404 5.404 5.404 5.404 0 1 1-10.808 0zM13.536 34.519v-2.45H2.78v-19.33H0v21.78h13.536m14.933 0V18.852h-2.48v8.635c0 3.197-1.673 5.288-4.273 5.288-1.972 0-3.227-1.195-3.227-3.077V18.852h-2.48v11.832c0 2.6 1.942 4.273 5 4.273 2.3 0 3.765-.807 5.23-2.868v2.42h2.24m18.204-.05v-1.882c-.27.06-.388.06-.538.06-.866 0-1.344-.448-1.344-1.225v-8.724c0-2.78-2.032-4.273-5.886-4.273-3.794 0-6.125 1.464-6.274 5.08h2.5c.2-1.912 1.344-2.78 3.675-2.78 2.24 0 3.496.837 3.496 2.33v.657c0 1.046-.627 1.494-2.6 1.733-3.526.448-4.063.568-5.02.956-1.823.747-2.75 2.15-2.75 4.063 0 2.838 1.972 4.512 5.14 4.512a7.33 7.33 0 0 0 5.318-2.3 2.65 2.65 0 0 0 2.569 2.062c.508 0 .896-.06 1.703-.27M42.31 29.11c0 2.24-2.27 3.675-4.7 3.675-1.942 0-3.077-.687-3.077-2.4 0-1.643 1.105-2.36 3.765-2.75 2.63-.36 3.167-.478 4.004-.866v2.33" fill="#192965"/></g></symbol></svg>
